# xmcd
#
# Track frame offsets: 
#        150
#        12198
#        28552
#        43839
#        63165
#        79424
#        95564
#        117379
#        138998
#        157268
#        173700
#        189095
#        206396
#        219241
#        238386
#        255203
#
# Disc length: 3626 seconds
#
# Revision: 0
# Processed by: cddbd v1.5.2PL0 Copyright (c) Steve Scherf et al.
# Submitted via: ExactAudioCopy v0.95b1
#
DISCID=d50e2810
DTITLE=張藝 - 試音天碟（一）
DYEAR=2006
DGENRE=Folk
TTITLE0=試機一號交響樂《勝利序曲》
TTITLE1=一水隔天涯（人聲）
TTITLE2=四季（小提琴狂想曲）
TTITLE3=又見炊煙
TTITLE4=維塔斯（星星）人聲測試
TTITLE5=三國-長城記
TTITLE6=煙花三月（人聲）
TTITLE7=夜闌人靜
TTITLE8=月光小夜曲（人聲）
TTITLE9=萬寶路 回想曲
TTITLE10=在希望的田野上（人聲）
TTITLE11=一剪梅（人聲）
TTITLE12=斯特勞斯圓舞曲
TTITLE13=月光女神（人聲）
TTITLE14=天空（人聲）
TTITLE15=不知道
EXTD=
EXTT0=
EXTT1=
EXTT2=
EXTT3=
EXTT4=
EXTT5=
EXTT6=
EXTT7=
EXTT8=
EXTT9=
EXTT10=
EXTT11=
EXTT12=
EXTT13=
EXTT14=
EXTT15=
PLAYORDER=
